<svg width="52" height="24" viewBox="0 0 52 24" fill="none" xmlns="http://www.w3.org/2000/svg">
  <path d="M2.50794 8.58174C1.86075 8.23329 1.36203 7.74173 1.01292 7.1065C0.663812 6.47127 0.489258 5.73648 0.489258 4.90214C0.489258 4.07571 0.663812 3.34658 1.01292 2.71531C1.36203 2.08404 1.86017 1.59418 2.50794 1.24573C3.15512 0.897289 3.91423 0.723633 4.78526 0.723633C5.33444 0.723633 5.86622 0.803956 6.38003 0.964602C6.89383 1.12525 7.30789 1.34359 7.62162 1.61907L6.95066 3.14577C6.2681 2.66384 5.56177 2.4223 4.83223 2.4223C4.15721 2.4223 3.63935 2.63103 3.27865 3.04792C2.91736 3.46537 2.73701 4.08307 2.73701 4.90214C2.73701 5.72856 2.91736 6.35248 3.27865 6.77333C3.63935 7.19418 4.15721 7.4046 4.83223 7.4046C5.56177 7.4046 6.2681 7.16363 6.95066 6.68113L7.62162 8.20784C7.30789 8.48331 6.89383 8.70165 6.38003 8.8623C5.86622 9.02295 5.33444 9.10327 4.78526 9.10327C3.91481 9.1044 3.1557 8.93018 2.50794 8.58174Z" fill="white"/>
  <path d="M11.0473 8.59361C10.4117 8.25309 9.92346 7.76493 9.58189 7.12969C9.24032 6.49446 9.06982 5.75175 9.06982 4.90214C9.06982 4.05252 9.24206 3.31377 9.58769 2.68646C9.93274 2.05915 10.4216 1.57495 11.0531 1.23442C11.6847 0.893895 12.4281 0.723633 13.2835 0.723633C14.1389 0.723633 14.8823 0.893895 15.5138 1.23442C16.1454 1.57495 16.6302 2.05915 16.9677 2.68646C17.3052 3.31434 17.474 4.05252 17.474 4.90214C17.474 5.75175 17.3052 6.49446 16.9677 7.12969C16.6302 7.76493 16.1454 8.25309 15.5138 8.59361C14.8823 8.93414 14.1383 9.1044 13.2835 9.1044C12.4287 9.1044 11.6829 8.93414 11.0473 8.59361ZM14.7611 6.8084C15.1183 6.37228 15.2964 5.73705 15.2964 4.9027C15.2964 4.07628 15.1178 3.4467 14.7611 3.01398C14.4039 2.58181 13.9115 2.36517 13.2841 2.36517C12.656 2.36517 12.166 2.57955 11.8128 3.00832C11.4597 3.43709 11.2834 4.06836 11.2834 4.9027C11.2834 5.74497 11.4597 6.3819 11.8128 6.81406C12.166 7.24678 12.656 7.46286 13.2841 7.46286C13.9115 7.46286 14.4039 7.24452 14.7611 6.8084Z" fill="white"/>
  <path d="M19.4746 0.82666H22.8996C23.8251 0.82666 24.6237 0.989569 25.2946 1.31482C25.9656 1.64007 26.4794 2.109 26.8366 2.72104C27.1939 3.33365 27.3719 4.06052 27.3719 4.90222C27.3719 5.75183 27.1956 6.48492 26.8424 7.10092C26.4893 7.71692 25.9772 8.18755 25.3062 8.5128C24.6353 8.83805 23.8327 9.00096 22.899 9.00096H19.4746V0.82666ZM22.7471 7.2791C23.563 7.2791 24.1731 7.08226 24.5773 6.68799C24.9815 6.29373 25.1833 5.69866 25.1833 4.90278C25.1833 3.33365 24.3714 2.54908 22.7471 2.54908H21.6876V7.2791H22.7471Z" fill="white"/>
  <path d="M29.3733 0.82666H31.5862V9.00096H29.3733V0.82666Z" fill="white"/>
  <path d="M41.2961 0.82666V9.00096H39.6601L35.8582 4.36258V9.00096H33.7983V0.82666H35.4111L39.213 5.44185V0.82666H41.2961Z" fill="white"/>
  <path d="M50.9594 4.38569V8.48444C50.5123 8.68355 50.0118 8.83685 49.4586 8.94375C48.9053 9.05066 48.3382 9.1044 47.7577 9.1044C46.8472 9.1044 46.0568 8.93584 45.3858 8.59927C44.7149 8.2627 44.1987 7.7785 43.838 7.14723C43.4767 6.51596 43.2964 5.76759 43.2964 4.9027C43.2964 4.06101 43.4767 3.32396 43.838 2.69268C44.1987 2.06141 44.7091 1.57551 45.3678 1.23442C46.0272 0.893895 46.7956 0.723633 47.6747 0.723633C48.279 0.723633 48.8496 0.799996 49.3872 0.953289C49.9248 1.10658 50.3621 1.31701 50.6996 1.58456L50.0054 3.11127C49.6209 2.86634 49.2504 2.68872 48.8931 2.57729C48.5359 2.46642 48.1532 2.41099 47.7455 2.41099C46.9997 2.41099 46.4447 2.61575 46.08 3.02529C45.7152 3.43482 45.5325 4.06044 45.5325 4.90214C45.5325 5.77495 45.7227 6.42149 46.1032 6.84234C46.4836 7.26319 47.0699 7.47361 47.8626 7.47361C48.2315 7.47361 48.6003 7.43515 48.9691 7.35878V5.84339H47.5095V4.38513H50.9594V4.38569Z" fill="white"/>
  <path d="M8.84998 12.3875V21.158H7.09458L3.01547 16.1813V21.158H0.80542V12.3875H2.5353L6.61442 17.3392V12.3875H8.84998Z" fill="white"/>
  <path d="M11.4893 12.3875H13.8634V21.158H11.4893V12.3875Z" fill="white"/>
  <path d="M24.5349 12.3875V21.158H22.7795L18.7003 16.1813V21.158H16.4902V12.3875H18.2201L22.2993 17.3392V12.3875H24.5349Z" fill="white"/>
  <path d="M26.3911 21.5155C26.8121 21.5562 27.1195 21.5771 27.3132 21.5771C27.6919 21.5771 27.9447 21.503 28.0711 21.3554C28.1976 21.2077 28.2608 20.9243 28.2608 20.5052V12.3875H30.6349V20.4684C30.6349 21.503 30.4204 22.2627 29.9906 22.7474C29.5615 23.2317 28.8244 23.4743 27.7806 23.4743C27.3677 23.4743 26.9049 23.4376 26.3911 23.3635V21.5155Z" fill="white"/>
  <path d="M39.3356 19.348H35.3446L34.549 21.1587H32.1748L36.3804 12.3882H38.2494L42.4677 21.1587H40.1312L39.3356 19.348ZM38.5655 17.6109L37.3407 14.8392L36.1159 17.6109H38.5655Z" fill="white"/>
  <path d="M45.1197 21.0104C44.4632 20.8379 43.9279 20.6037 43.5156 20.3085L44.2608 18.6703C44.6987 18.9413 45.1637 19.1489 45.6561 19.2925C46.1484 19.4362 46.6431 19.5081 47.1401 19.5081C47.6452 19.5081 48.0326 19.4402 48.3022 19.305C48.5713 19.1692 48.7064 18.9786 48.7064 18.732C48.7064 18.5102 48.5841 18.3275 48.3399 18.1839C48.0958 18.0402 47.6371 17.8988 46.9632 17.759C46.1125 17.595 45.452 17.3914 44.9805 17.1493C44.509 16.9072 44.1785 16.6215 43.9888 16.2934C43.7992 15.9648 43.7047 15.5666 43.7047 15.0988C43.7047 14.5648 43.8601 14.0823 44.1721 13.6512C44.4835 13.2202 44.9213 12.8836 45.4856 12.641C46.0493 12.3989 46.6936 12.2778 47.4179 12.2778C48.0662 12.2778 48.6954 12.3661 49.3061 12.5426C49.9162 12.719 50.394 12.951 50.7396 13.2383L50.0072 14.8765C49.6111 14.6055 49.1947 14.3979 48.7569 14.2542C48.3191 14.1106 47.8812 14.0387 47.4434 14.0387C47.0143 14.0387 46.6686 14.119 46.4077 14.2791C46.1467 14.4392 46.0162 14.6547 46.0162 14.9257C46.0162 15.0733 46.0626 15.1966 46.1554 15.295C46.2482 15.3935 46.4204 15.4902 46.6733 15.5847C46.9261 15.6791 47.3048 15.7798 47.8099 15.8867C48.6264 16.0592 49.2684 16.2668 49.7358 16.5089C50.2032 16.751 50.5332 17.0344 50.7269 17.3591C50.9206 17.6838 51.0174 18.0719 51.0174 18.5232C51.0174 19.3774 50.6764 20.0488 49.9944 20.5376C49.3125 21.0263 48.3527 21.2706 47.1152 21.2706C46.4419 21.2695 45.7767 21.183 45.1197 21.0104Z" fill="white"/>
</svg>
