<svg width="182" height="182" viewBox="0 0 182 182" fill="none" xmlns="http://www.w3.org/2000/svg">
<circle cx="91.3443" cy="90.5768" r="90.5768" fill="white"/>
<circle cx="92.033" cy="92.6431" r="63.0249" fill="#F9F9FA"/>
<circle cx="41.7508" cy="38.2278" r="3.78838" fill="#E1E1E3"/>
<circle cx="38.3068" cy="128.461" r="5.16598" fill="#E1E1E3"/>
<circle cx="155.402" cy="76.1123" r="5.16598" fill="#E1E1E3"/>
<circle cx="140.593" cy="145.336" r="3.44398" fill="#E1E1E3"/>
<circle cx="53.4604" cy="28.5846" r="2.41079" fill="#E1E1E3"/>
<circle cx="157.124" cy="57.1699" r="2.06639" fill="#E1E1E3"/>
<path fill-rule="evenodd" clip-rule="evenodd" d="M123.201 19.2858C123.201 18.525 122.584 17.9082 121.824 17.9082C121.063 17.9082 120.446 18.525 120.446 19.2858V22.5576H117.174C116.413 22.5576 115.797 23.1744 115.797 23.9352C115.797 24.696 116.413 25.3128 117.174 25.3128H120.446V28.5846C120.446 29.3454 121.063 29.9621 121.824 29.9621C122.584 29.9621 123.201 29.3454 123.201 28.5846V25.3128H126.473C127.234 25.3128 127.851 24.696 127.851 23.9352C127.851 23.1744 127.234 22.5576 126.473 22.5576H123.201V19.2858Z" fill="#9696A0"/>
<path fill-rule="evenodd" clip-rule="evenodd" d="M30.2136 86.7877C30.2136 86.0269 29.5969 85.4102 28.8361 85.4102C28.0752 85.4102 27.4585 86.0269 27.4585 86.7877V90.0595H24.1867C23.4259 90.0595 22.8091 90.6763 22.8091 91.4371C22.8091 92.198 23.4259 92.8147 24.1867 92.8147H27.4585V96.0865C27.4585 96.8473 28.0752 97.4641 28.8361 97.4641C29.5969 97.4641 30.2136 96.8473 30.2136 96.0865V92.8147H33.4854C34.2463 92.8147 34.863 92.198 34.863 91.4371C34.863 90.6763 34.2463 90.0595 33.4854 90.0595H30.2136V86.7877Z" fill="#9696A0"/>
<path fill-rule="evenodd" clip-rule="evenodd" d="M149.156 134.659C149.156 134.089 148.694 133.626 148.123 133.626C147.553 133.626 147.09 134.089 147.09 134.659V136.679H145.07C144.5 136.679 144.037 137.142 144.037 137.712C144.037 138.283 144.5 138.746 145.07 138.746H147.09V140.765C147.09 141.336 147.553 141.798 148.123 141.798C148.694 141.798 149.156 141.336 149.156 140.765V138.746H151.176C151.747 138.746 152.209 138.283 152.209 137.712C152.209 137.142 151.747 136.679 151.176 136.679H149.156V134.659Z" fill="#9696A0"/>
<path d="M6.27783 121.917C9.95141 122.95 31.4878 117.564 33.1409 109.574C34.794 101.584 29.9265 99.7608 27.2861 100.564C21.7758 102.241 23.2222 107.659 26.2529 109.863C33.1409 114.873 38.5309 107.452 41.0621 102.631C48.2944 88.8549 53.4604 81.9669 59.6596 83.6889C65.8587 85.4109 81.3567 83.6889 86.5226 76.4565C90.6797 70.6366 98.7398 61.2475 106.842 56.4814C118.552 49.5934 140.249 54.0706 136.116 59.581C131.983 65.0914 126.365 50.8297 130.606 44.7719C135.427 37.8839 143.348 38.9171 149.548 40.2947" stroke="#B4B4BB" stroke-width="0.688797" stroke-dasharray="2.07 2.76"/>
<path d="M153.187 40.6387L155.592 45.1044C156.134 46.1092 155.758 47.3624 154.753 47.9037V47.9037C153.748 48.4449 152.495 48.0691 151.954 47.0644L149.548 42.5986L153.187 40.6387Z" fill="#F0F0F1"/>
<path d="M151.948 43.1338L150.037 47.0686C149.538 48.0951 148.301 48.5229 147.275 48.0242V48.0242C146.248 47.5254 145.821 46.289 146.319 45.2625L148.231 41.3277L151.948 43.1338Z" fill="#F0F0F1"/>
<path d="M152.531 38.3701L152.839 33.4531C152.91 32.3141 152.045 31.3328 150.906 31.2614V31.2614C149.767 31.19 148.786 32.0555 148.714 33.1945L148.406 38.1115L152.531 38.3701Z" fill="#F0F0F1"/>
<path d="M151.03 37.6963L147.834 33.9464C147.094 33.0778 145.79 32.9737 144.921 33.7139V33.7139C144.052 34.4541 143.948 35.7583 144.689 36.6269L147.884 40.3768L151.03 37.6963Z" fill="#F0F0F1"/>
<rect x="152.462" y="35.9932" width="6.88797" height="5.51037" rx="2.06639" transform="rotate(77.6389 152.462 35.9932)" fill="#B4B4BB"/>
<path d="M42.2891 55.7917C46.0775 70.9452 61.6901 71.06 70.1853 70.9452C77.1881 80.244 85.6957 97.1195 68.8079 97.1195C60.198 97.1195 42.6607 92.9867 37.4675 73.0116C32.9905 55.7917 39.1895 43.3933 42.2891 55.7917Z" fill="#E1E1E3"/>
<path d="M141.132 55.7917C137.343 70.9452 121.731 71.06 113.236 70.9452C106.233 80.244 97.7252 97.1195 114.613 97.1195C123.223 97.1195 140.76 92.9867 145.953 73.0116C150.43 55.7917 144.231 43.3933 141.132 55.7917Z" fill="#E1E1E3"/>
<path fill-rule="evenodd" clip-rule="evenodd" d="M125.283 57.8581C125.287 57.6291 125.289 57.3995 125.289 57.1693C125.289 38.1487 109.87 22.7295 90.8497 22.7295C71.8291 22.7295 56.4098 38.1487 56.4098 57.1693C56.4098 57.3995 56.4121 57.6291 56.4166 57.8581H56.4097C56.4097 57.8581 56.4123 57.8697 56.4173 57.8925C56.481 60.9872 56.953 63.9815 57.7814 66.8239C58.7959 76.0798 59.3493 91.1384 55.0322 105.385C50.4702 120.44 44.0953 130.509 40.3101 135.593C38.5192 137.998 38.2453 141.226 40.6432 143.027C46.2119 147.209 59.8011 153.601 90.8497 153.601C122.592 153.601 137.064 145.617 143.006 140.632C145.42 138.607 145.1 135.144 143.277 132.573C139.754 127.604 134.137 117.892 129.767 101.941C124.723 83.5327 124.665 68.4479 124.996 61.6887C125.158 60.4533 125.254 59.1973 125.281 57.9243C125.287 57.8804 125.289 57.8581 125.289 57.8581H125.283Z" fill="url(#paint0_radial_2797_3248)"/>
<path d="M81.6786 44.8311C79.9749 44.8311 78.5811 46.2249 78.5811 47.9286V57.2211C78.5811 58.9247 79.9749 60.3186 81.6786 60.3186C83.3822 60.3186 84.7761 58.9247 84.7761 57.2211V47.9286C84.7761 46.2249 83.3822 44.8311 81.6786 44.8311Z" fill="#19191D"/>
<ellipse cx="79.1523" cy="49.5328" rx="2.94432" ry="2.10309" fill="white"/>
<circle cx="82.9379" cy="47.4301" r="0.841235" fill="white"/>
<path d="M99.6329 44.8301C97.9293 44.8301 96.5354 46.224 96.5354 47.9276V57.2201C96.5354 58.9237 97.9293 60.3176 99.6329 60.3176C101.337 60.3176 102.73 58.9237 102.73 57.2201V47.9276C102.73 46.224 101.337 44.8301 99.6329 44.8301V44.8301Z" fill="#19191D"/>
<circle cx="100.897" cy="47.4291" r="0.841235" fill="white"/>
<ellipse cx="97.1118" cy="49.5328" rx="2.94432" ry="2.10309" fill="white"/>
<path d="M101.181 65.7801C101.181 66.3507 96.5557 68.1909 90.8495 68.1909C85.1433 68.1909 80.5176 66.3507 80.5176 65.7801C80.5176 65.2095 85.1433 66.1245 90.8495 66.1245C96.5557 66.1245 101.181 65.2095 101.181 65.7801Z" fill="black"/>
<path d="M91.5383 66.124H99.8039V70.9456V71.6344C99.8039 73.9169 97.9536 75.7672 95.6711 75.7672V75.7672C93.3886 75.7672 91.5383 73.9169 91.5383 71.6344V66.124Z" fill="black"/>
<path d="M75.6958 110.896C73.285 147.057 69.841 148.091 66.7415 151.879C68.4634 152.568 73.3998 152.797 75.6958 152.912C75.4662 135.348 75.6958 116.061 75.6958 110.896Z" fill="#D2D2D6"/>
<path d="M105.314 110.896C107.725 147.057 111.169 148.091 114.269 151.879C112.547 152.568 107.61 152.797 105.314 152.912C105.544 135.348 105.314 116.061 105.314 110.896Z" fill="#D2D2D6"/>
<path d="M142.032 132.593C126.19 113.995 121.616 77.2592 122.878 61.6465C122.878 61.6465 120.335 79.8996 121.713 92.6423C123.09 105.385 126.19 114.684 142.032 132.593Z" fill="#D2D2D6"/>
<path d="M46.0212 133.085C60.873 113.687 63.5268 76.763 61.4521 61.2373C61.4521 61.2373 64.943 79.3331 64.2313 92.1303C63.5196 104.928 60.9089 114.375 46.0212 133.085Z" fill="#D2D2D6"/>
<defs>
<radialGradient id="paint0_radial_2797_3248" cx="0" cy="0" r="1" gradientUnits="userSpaceOnUse" gradientTransform="translate(113.193 60.4309) rotate(124.833) scale(109.813 104.133)">
<stop stop-color="white"/>
<stop offset="1" stop-color="#D4D4D4"/>
</radialGradient>
</defs>
</svg>
